<?xml version="1.0" encoding="utf-8"?>
<!-- Generator: Adobe Illustrator 23.0.3, SVG Export Plug-In . SVG Version: 6.00 Build 0)  -->
<svg version="1.1" id="Layer_1" xmlns="http://www.w3.org/2000/svg" xmlns:xlink="http://www.w3.org/1999/xlink" x="0px" y="0px"
	 viewBox="0 0 925 825" style="enable-background:new 0 0 925 825;" xml:space="preserve">
<style type="text/css">
	.st0{fill:#F44336;}
	.st1{fill:#FFFFFF;}
</style>
<g>
	<g>
		<path class="st0" d="M473.8,677.4c-5.8,5.4-11.1,11-17,15.8c-21.4,17.7-46.6,26.1-73.7,29.3c-20.4,2.4-40.9,2.8-61.3-0.3
			c-24.2-3.7-44.6-14.1-58.9-34.8c-0.3-0.4-0.7-0.7-1.3-1.3c-1.4,0.7-2.8,1.3-4.2,2.1c-34.2,18.4-69.8,20.6-106.4,8.6
			c-13.6-4.5-22.6-15-30.9-26c-16.3-21.7-28.4-46-38.7-70.9c-17.2-41.9-33.3-84.3-50.2-126.3C24,455.7,16.3,438,12.6,418.9
			c-9.9-51.5-9.5-102.4,8.5-152.3c8.1-22.3,19.9-42.2,39.4-56.6c11.8-8.8,25.1-13.6,39.9-14.2c43.3-1.7,78.6-20.2,106.9-52.1
			c18.4-20.7,39.2-36.9,66.8-43c13.7-3,27.5-4.1,41.2-2.1c27,3.9,52.8-0.5,77.8-10.4c24-9.5,45.1-23.3,64.2-40.7
			c22.4-20.3,49.7-30.6,79.2-35.3c30-4.7,58.7-1.1,85.9,13.2c12.2,6.4,25.7,8.7,39.2,8.4c26.6-0.6,53.2-2.4,79.9-3.1
			c13.1-0.3,26.3,0.1,39.4,1.2c20.5,1.8,36.1,12.7,48.5,28.6c13.6,17.5,22.7,37.3,30.1,57.9c9.2,25.6,18.9,51,26,77.2
			c6.1,22.7,9.9,46.3,12.9,69.7c8.6,67.3,13.2,135,11.3,202.9c-0.5,17.4-3,34.8-4.5,52.2c-0.2,1.8,0.1,3.6,0.3,5.4
			c2.7,22.1,6.3,44.2,8,66.4c2.2,29.4-2.5,58.1-12.6,85.9c-10.5,29-23.8,56.4-42.2,81.3c-15,20.3-34,32.5-60,33.7
			c-29,1.3-57.9,3.7-86.8,5.8c-40.5,2.9-81.1,5.8-121.6,9.1c-9.7,0.8-19.3,3.6-29,5.3c-45,8-84.6-23.4-87.5-69.2
			c-1.1-18.4,1.6-36.2,8.1-53.5c1.4-3.7,1.3-6.1-2.4-8.3C477.4,681.2,475.6,679,473.8,677.4z M696.4,270.2c0.7,0.3,1.4,0.6,2.1,0.9
			c-0.7,8.9-0.7,17.9-2.1,26.6c-5.3,32.3-9.8,64.7-9,97.4c1.3,49.6,4.1,99.2,6,148.8c0.9,22.3,1.2,44.6,1.6,66.9
			c0,3.1,1.1,4,3.7,4.7c22.5,6,45.3,8.3,68.3,3.9c34.8-6.6,62.7-25.3,85.6-51.8c15.4-17.8,25.9-38,28.4-61.7
			c1.5-13.9,2.6-27.9,2.9-41.9c1.1-56.2-2.3-112.3-8.2-168.2c-2.8-26.1-5.3-52.6-11.6-78c-7.8-31.1-19.2-61.3-29.6-91.7
			c-5.8-16.9-13.5-33-24-47.6C800.6,65,787.7,57.2,770.8,57c-13.6-0.2-27.3,0.2-40.9,0.5c-24.6,0.7-49.3,2.2-73.9,2.2
			c-15,0-30.1-2.9-43.5-10.1c-25.9-13.8-53-15.8-81-9.6c-20.6,4.5-40.1,12-55.8,26.4c-18.7,17.2-39.4,31.2-62.5,41.8
			c-30.7,14.1-62.8,20.9-96.7,16.7c-12.8-1.6-25.6-1.5-38.2,1.6c-21,5.2-36.4,18.4-50.7,33.9c-9,9.7-18.6,19.3-29.3,27
			c-28.9,21-60.8,34.3-97.3,34.5c-8.6,0.1-16.3,3.1-23.3,7.9c-13,8.9-21,21.6-27.4,35.6c-10.1,21.7-15.1,44.8-16.7,68.6
			c-2.6,39.5,0.9,78.2,16.1,115.3c7,17.1,13.7,34.3,20.3,51.6c15.3,40.1,30.3,80.5,49.8,118.8c7.7,15,15.7,29.9,27.2,42.3
			c3.6,3.9,8,8.2,12.9,9.8c29.8,9.8,58.7,7.8,86.5-7.5c2.8-1.6,2.9-3.2,2-6c-3-9-6-18-8.2-27.2c-9.5-39.7-12.1-80.3-16.8-120.7
			c-6.8-57.7-13.1-115.5-19.7-174.5c3,3.2,5.8,5.5,7.8,8.3c8.3,11.9,12.2,25.6,14.5,39.6c6.3,38.8,12.2,77.7,18.2,116.5
			c5.4,34.9,10.2,69.9,16.2,104.7c3.5,20.4,9,40.3,19,58.7c9.2,16.9,23,27.9,42,30.7c31.4,4.7,62.5,3.7,92.6-7.5
			c17.2-6.4,31.6-17,42.7-31.8c2.1-2.9,2.9-5.5,1.7-9.1c-2.1-6.7-3.7-13.5-5.1-20.3c-11.6-55.5-15.5-111.8-17.1-168.3
			c-0.8-30.8-1.6-61.6-2.2-92.5c-0.2-12.3-0.4-24.7,0.4-36.9c0.7-10.3,2.9-20.5,4.4-30.7c0.6,0,1.2,0,1.8,0c0.9,1.7,2,3.4,2.5,5.2
			c3.4,11.8,8.6,23.5,9.7,35.5c2.8,28.7,4.2,57.5,5.2,86.3c2,55.2,4.7,110.2,14.2,164.7c3.3,19,7.9,37.8,12.8,56.5
			c3.5,13.4,12.9,21.5,26.6,24.2c3.4,0.7,6.9,1.3,10.4,1.6c26.8,2.5,52.9-1,78.5-8.6c19.3-5.7,37.9-12.9,53.6-25.9
			c8.3-6.9,14.9-15,16.7-25.9c1-6,1.3-12.3,1.1-18.4c-1.2-36.1-2.7-72.3-4-108.4c-1.8-49.5-2.2-99,4.3-148.2
			c2.2-16.9,4.6-33.8,13-49C688.2,280.9,692.5,275.7,696.4,270.2z M885.1,569.2c-5.9,7.2-11.2,14.5-17.3,21
			c-26.3,28.1-57.6,47.9-95.8,55.1c-27.8,5.2-55.4,2.8-82.6-5.1c-2.1-0.6-4.1-1.9-6.1,0.9c-11.8,16.3-28.2,26.7-46.2,34.7
			c-40.1,17.9-82,25.1-125.8,20.1c-1.3-0.2-3.8,1.3-4.2,2.5c-5.2,14.4-8.4,29.2-7,44.6c1.6,16.7,8.5,30.4,23.5,39
			c3.7,2.1,8,3.4,12.1,5c-3.2-9.1-6.7-17.2-9-25.6c-3.8-14-0.4-26.7,8.5-38c6.6-8.3,15-14.1,24.6-18.4
			c23.8-10.8,48.8-12.4,74.4-10.3c1.1,0.1,2.3,0.4,3.4,0.7c-4.4,1.7-8.8,2.6-13.2,3.5c-19.5,4.3-39.3,8-57.4,16.9
			c-29,14.3-34.3,29.5-30.2,55.5c2.8,17.5,4.6,18.8,22.3,15.8c18.9-3.2,37.8-5.7,56.8-8.3c7.8-1.1,15.8-1.4,23.9-2.2
			c-11.9-26.9-10.6-52.6,3.8-77.7c8,25.3,5.9,51.1,3.2,77c2.4,0,4.2,0.1,6,0c30.4-1.7,60.9-3.1,91.3-5.1c21.3-1.4,42.5-3.8,63.7-5.6
			c3.7-0.3,5-2,5.4-5.6c2.6-22.2,4.2-44.3-4.4-65.8c13.7,17.8,15.6,39.2,18.7,60.6C865.5,724.5,897.7,620.5,885.1,569.2z"/>
		<path class="st1" d="M696.4,270.2c-3.8,5.5-8.1,10.7-11.4,16.5c-8.4,15.2-10.8,32.1-13,49c-6.4,49.3-6.1,98.7-4.3,148.2
			c1.3,36.1,2.8,72.3,4,108.4c0.2,6.1-0.1,12.4-1.1,18.4c-1.9,10.9-8.5,19-16.7,25.9c-15.7,13-34.3,20.3-53.6,25.9
			c-25.6,7.6-51.8,11.1-78.5,8.6c-3.5-0.3-6.9-0.9-10.4-1.6c-13.7-2.7-23.1-10.8-26.6-24.2c-4.8-18.7-9.4-37.5-12.8-56.5
			c-9.5-54.5-12.2-109.5-14.2-164.7c-1.1-28.8-2.4-57.6-5.2-86.3c-1.2-12-6.3-23.7-9.7-35.5c-0.5-1.8-1.7-3.5-2.5-5.2
			c-0.6,0-1.2,0-1.8,0c-1.5,10.2-3.7,20.4-4.4,30.7c-0.8,12.3-0.6,24.6-0.4,36.9c0.6,30.8,1.3,61.6,2.2,92.5
			c1.5,56.5,5.5,112.8,17.1,168.3c1.4,6.8,3,13.7,5.1,20.3c1.2,3.7,0.4,6.3-1.7,9.1C445.4,670,431,680.5,413.8,687
			c-30.1,11.3-61.3,12.2-92.6,7.5c-19-2.8-32.8-13.8-42-30.7c-10-18.4-15.5-38.4-19-58.7c-5.9-34.8-10.8-69.8-16.2-104.7
			c-6-38.9-11.9-77.7-18.2-116.5c-2.3-14-6.2-27.7-14.5-39.6c-2-2.8-4.8-5.1-7.8-8.3c6.6,59,13,116.8,19.7,174.5
			c4.7,40.4,7.4,81,16.8,120.7c2.2,9.2,5.2,18.2,8.2,27.2c0.9,2.9,0.9,4.4-2,6c-27.7,15.3-56.7,17.3-86.5,7.5
			c-4.9-1.6-9.3-5.9-12.9-9.8c-11.5-12.5-19.5-27.3-27.2-42.3c-19.6-38.4-34.5-78.7-49.8-118.8c-6.6-17.3-13.3-34.5-20.3-51.6
			c-15.2-37.1-18.7-75.8-16.1-115.3c1.6-23.8,6.6-46.8,16.7-68.6c6.4-13.9,14.5-26.7,27.4-35.6c7-4.8,14.8-7.8,23.3-7.9
			c36.5-0.2,68.4-13.6,97.3-34.5c10.7-7.7,20.3-17.3,29.3-27c14.3-15.5,29.7-28.7,50.7-33.9c12.6-3.1,25.4-3.2,38.2-1.6
			c33.9,4.3,66-2.5,96.7-16.7c23-10.6,43.7-24.6,62.5-41.8c15.8-14.5,35.2-21.9,55.8-26.4c28.1-6.2,55.1-4.2,81,9.6
			c13.4,7.1,28.5,10,43.5,10.1c24.6,0,49.2-1.5,73.9-2.2c13.6-0.4,27.3-0.7,40.9-0.5c16.9,0.2,29.8,8,39.6,21.6
			c10.5,14.6,18.2,30.7,24,47.6c10.4,30.4,21.8,60.6,29.6,91.7c6.4,25.4,8.8,51.9,11.6,78c5.9,55.9,9.3,111.9,8.2,168.2
			c-0.3,14-1.4,28-2.9,41.9c-2.5,23.7-13,43.9-28.4,61.7c-22.9,26.5-50.8,45.1-85.6,51.8c-23,4.4-45.8,2.1-68.3-3.9
			c-2.6-0.7-3.7-1.6-3.7-4.7c-0.3-22.3-0.7-44.6-1.6-66.9c-1.9-49.6-4.7-99.2-6-148.8c-0.8-32.7,3.7-65.1,9-97.4
			c1.4-8.8,1.4-17.7,2.1-26.6C697.7,270.8,697,270.5,696.4,270.2z M872,518.6c-47.6,7.9-94.7,8.4-143.1,10.3
			C769.4,551.9,841.8,546.9,872,518.6z M614.6,77.1c-7.5,14.5-15.4,59.1-12.5,69.6C617.1,134.2,624.2,95.4,614.6,77.1z M334.3,222.7
			c9.1-8.1,12.5-17.6,13-28.4c0.6-12.6-2.6-23.9-13-32.3C334.3,181.8,334.3,201.5,334.3,222.7z"/>
		<path class="st1" d="M885.1,569.2c12.6,51.4-19.6,155.4-57.5,185.2c-3.1-21.4-5.1-42.9-18.7-60.6c8.6,21.5,7,43.6,4.4,65.8
			c-0.4,3.6-1.7,5.3-5.4,5.6c-21.2,1.8-42.4,4.1-63.7,5.6c-30.4,2-60.9,3.5-91.3,5.1c-1.8,0.1-3.6,0-6,0c2.7-25.9,4.8-51.7-3.2-77
			c-14.4,25.1-15.7,50.8-3.8,77.7c-8.2,0.7-16.1,1.1-23.9,2.2c-19,2.6-37.9,5.1-56.8,8.3c-17.7,3-19.5,1.7-22.3-15.8
			c-4.1-26,1.3-41.2,30.2-55.5c18.1-8.9,37.8-12.7,57.4-16.9c4.4-1,8.7-1.8,13.2-3.5c-1.1-0.2-2.2-0.6-3.4-0.7
			c-25.6-2.1-50.6-0.6-74.4,10.3c-9.5,4.3-18,10.1-24.6,18.4c-8.9,11.3-12.3,24-8.5,38c2.3,8.4,5.8,16.6,9,25.6
			c-4.1-1.7-8.4-2.9-12.1-5c-15-8.6-21.9-22.3-23.5-39c-1.5-15.4,1.7-30.2,7-44.6c0.4-1.2,2.9-2.7,4.2-2.5
			c43.8,5,85.7-2.2,125.8-20.1c18-8,34.4-18.4,46.2-34.7c2-2.8,4-1.5,6.1-0.9c27.1,8,54.8,10.3,82.6,5.1c38.2-7.2,69.5-27,95.8-55.1
			C873.9,583.7,879.2,576.4,885.1,569.2z"/>
		<path class="st0" d="M872,518.6c-30.2,28.4-102.6,33.3-143.1,10.3C777.3,526.9,824.4,526.5,872,518.6z"/>
		<path class="st0" d="M614.6,77.1c9.6,18.3,2.4,57.2-12.5,69.6C599.2,136.2,607.2,91.6,614.6,77.1z"/>
		<path class="st0" d="M334.3,222.7c0-21.1,0-40.9,0-60.6c10.4,8.4,13.6,19.7,13,32.3C346.8,205.1,343.4,214.6,334.3,222.7z"/>
	</g>
</g>
</svg>
